<svg id="Capa_1" enable-background="new 0 0 512 512" height="512" viewBox="0 0 512 512" width="512" xmlns="http://www.w3.org/2000/svg"><g><g><path d="m382.261 106.419 8.254 23.207c.353.994 1.053 1.781 1.936 2.179l20.619 9.29c2.913 1.312 2.913 5.954 0 7.266l-20.619 9.29c-.883.398-1.582 1.185-1.936 2.179l-8.254 23.208c-1.166 3.279-5.29 3.279-6.456 0l-8.253-23.208c-.353-.994-1.053-1.781-1.936-2.179l-20.619-9.29c-2.913-1.312-2.913-5.954 0-7.266l20.619-9.29c.883-.398 1.582-1.185 1.936-2.179l8.253-23.207c1.166-3.278 5.29-3.278 6.456 0z"/><path d="m485.248 1.824 6.122 17.215c.262.737.781 1.321 1.436 1.616l15.295 6.891c2.161.974 2.161 4.416 0 5.39l-15.295 6.891c-.655.295-1.174.879-1.436 1.616l-6.122 17.215c-.865 2.432-3.924 2.432-4.789 0l-6.122-17.215c-.262-.737-.781-1.321-1.436-1.616l-15.295-6.891c-2.161-.974-2.161-4.416 0-5.39l15.295-6.891c.655-.295 1.174-.879 1.436-1.616l6.122-17.215c.865-2.432 3.924-2.432 4.789 0z"/><circle cx="361.576" cy="41.466" r="18.022"/><ellipse cx="466.92" cy="150.498" rx="7.774" ry="7.774" transform="matrix(.122 -.993 .993 .122 260.5 595.532)"/></g><g><path d="m176.553 193.022c-.007 0-.017 0-.025 0-5.253 0-10.073-2.634-12.966-6.827 2.339-2.16 4.186-4.626 5.215-6.135 1.876-2.751 1.167-6.501-1.584-8.377-2.753-1.876-6.503-1.167-8.378 1.584-1.743 2.555-3.368 4.127-4.344 4.863-1.243-.776-3.39-2.575-5.481-5.304-2.026-2.643-5.81-3.143-8.452-1.119-2.642 2.025-3.144 5.809-1.118 8.452.964 1.258 3.201 3.984 6.065 6.325-2.911 4.043-7.649 6.581-12.774 6.586-3.329.003-6.026 2.706-6.022 6.035.004 3.327 2.702 6.022 6.029 6.022h.007c8.67-.009 16.726-4.114 21.906-10.738 5.179 6.607 13.206 10.689 21.898 10.689h.031c3.329-.004 6.026-2.706 6.022-6.035-.004-3.327-2.702-6.021-6.029-6.021z"/><path d="m87.994 198.825c-.019 0-.036 0-.055 0l-29.016-.258c-3.329-.03-6.004-2.753-5.975-6.082.03-3.33 2.742-5.978 6.083-5.975l29.016.258c3.329.03 6.004 2.753 5.975 6.082-.03 3.311-2.723 5.975-6.028 5.975z"/><path d="m88.152 220.149c-.019 0-.036 0-.055 0l-29.016-.259c-3.329-.03-6.004-2.753-5.975-6.083.029-3.329 2.758-5.962 6.083-5.975l29.016.259c3.329.03 6.004 2.753 5.975 6.083-.03 3.311-2.723 5.975-6.028 5.975z"/><path d="m250.398 199.33c-.019 0-.036 0-.055 0l-29.016-.259c-3.329-.03-6.004-2.753-5.975-6.082.029-3.311 2.723-5.975 6.027-5.975h.055l29.016.259c3.329.03 6.004 2.753 5.975 6.082-.029 3.311-2.722 5.975-6.027 5.975z"/><path d="m250.556 220.654c-.019 0-.036 0-.055 0l-29.016-.258c-3.329-.03-6.004-2.753-5.975-6.082.029-3.311 2.723-5.975 6.028-5.975h.055l29.016.258c3.329.03 6.004 2.753 5.975 6.082-.03 3.311-2.723 5.975-6.028 5.975z"/><path d="m53.678 90.748c-.513 0-1.001-.04-1.463-.119-4.636-.794-7.818-5.271-9.729-13.688-.054-.237-5.274-23.804 4.181-30.494 9.225-6.527 29.176 5.899 30.022 6.432 7.457 4.698 10.571 8.986 9.799 13.496-.715 4.176-5.52 9.488-14.281 15.789-7.929 5.704-14.15 8.584-18.529 8.584zm.091-34.219c-1.554 4.084-.565 16.712 1.574 21.707 4.76-1.881 14.487-8.79 18.2-12.896-4.207-3.527-15.275-8.812-19.714-8.812-.02.001-.04.001-.06.001zm-3.619-5.161h.01z"/><path d="m256.986 87.264c-4.205 0-10.347-3.144-18.279-9.363-8.589-6.733-13.197-12.4-13.701-16.843-.529-4.674 2.885-8.978 10.436-13.157.214-.118 21.394-11.695 30.451-4.48 8.843 7.043 2.464 29.668 2.187 30.627-2.434 8.47-5.685 12.655-10.232 13.169-.277.031-.565.047-.862.047zm-19.206-26.656c3.133 4.048 12.479 11.465 17.457 13.888 2.225-5.047 4.225-17.236 2.952-21.446-4.363-.363-16.208 4.112-20.409 7.558zm20.602-7.756h.011z"/><path d="m505.239 259.681c-13.92-18.541-31.57-30.127-51.043-33.505-17.164-2.977-34.477.597-48.753 10.062-15.168 10.054-25.643 25.578-29.495 43.712-3.989 18.797-.533 38.299 9.994 56.397 4.201 7.222 3.824 10.887 2.686 13.017-13.08-25.985-33.107-52.224-58.63-76.003-12.119-11.29-25.108-21.573-38.52-30.603 12.994-15.789 19.581-33.606 19.559-53.109-.031-27.442-6.948-55.18-20.04-80.497 9.752-32.45 17.983-86.282-7.922-101.059-21.776-12.423-53.087 6.215-71.795 17.351-2.046 1.218-4.417 2.63-6.143 3.592-16.305-5.614-31.115-8.139-47.51-8.139-.059 0-.119 0-.179 0-18.001.021-35.797 3.666-52.959 10.843-2.014-1.159-4.857-2.937-7.297-4.463-18.106-11.323-45.464-28.438-65.913-19.672-14.795 6.341-22.091 21.278-21.685 44.396.313 17.851 5.074 38.65 9.558 55.613-12.103 23.324-18.973 53.081-18.94 82.385.038 34.034 20.254 62.919 58.462 83.531 9.521 5.137 19.411 9.358 29.261 12.776-2.528 14.13-3.805 29.976-3.805 47.514 0 13.767 1.136 26.024 3.495 37.165l16.2 111.502-2.156 6.315c-1.804 5.28-.942 11.141 2.304 15.679s8.514 7.248 14.094 7.248h34.755c1.63 0 3.164-.397 4.525-1.085 1.368.695 2.914 1.085 4.544 1.085h34.756c5.579 0 10.848-2.709 14.094-7.248 3.245-4.538 4.106-10.399 2.304-15.68l-1.709-5.002c5.665 1.145 11.639 2.085 17.891 2.798.038-.048.083-.092.121-.14 1.232 15.164 13.349 25.54 30.324 25.54h76.667c18.629 0 34.109-13.739 36.841-31.616 19.351-14.04 32.191-39.046 32.729-64.258.007-.126.012-.25.018-.376 3.932-1.616 7.777-3.542 11.485-5.772 16.684-10.032 28.83-25.198 34.201-42.706 4.394-14.317 6.362-37.003-9.207-63.771-3.863-6.642-3.16-11.299-.872-12.816 1.739-1.152 6.499 1.609 11.461 8.216 10.814 14.403 31.329 17.324 45.73 6.511 6.977-5.239 11.497-12.88 12.726-21.518 1.234-8.633-.973-17.233-6.212-24.21zm-437.023-3.836c-21.835-11.78-47.871-32.769-47.908-65.869-.031-27.519 6.656-55.295 18.349-76.204l1.999-3.574-1.069-3.952c-4.813-17.808-19.459-71.999-.39-80.171 1.363-.584 2.947-.848 4.701-.848 12.121 0 32.273 12.605 42.637 19.087 11.502 7.193 16.263 10.169 22.453 7.378.909-.41 1.82-.805 2.733-1.191l-.536 30.959c-.096 5.548 4.323 10.124 9.872 10.22.059.001.118.001.178.001 5.467 0 9.948-4.384 10.042-9.873l.656-37.876c4.515-1.039 9.058-1.807 13.623-2.294l1.122 68.423c.09 5.492 4.57 9.883 10.044 9.883.055 0 .112-.001.168-.002 5.549-.091 9.972-4.663 9.882-10.211l-1.124-68.494c4.592.282 9.055.816 13.525 1.625l-.658 37.981c-.096 5.549 4.323 10.124 9.872 10.22.059.001.118.001.178.001 5.467 0 9.947-4.384 10.042-9.873l.571-32.953c.857.299 1.718.605 2.59.924 5.538 2.032 9.421-.279 19.791-6.452 11.957-7.118 39.955-23.785 51.56-17.164 8.379 4.78 11.473 38.113-2.522 81.54l-1.326 4.113 2.073 3.791c12.793 23.386 19.57 49.209 19.599 74.679.02 17.272-6.983 32.997-20.813 46.738-27.671 27.493-78.795 42.165-113.342 42.164-.304 0-.611-.001-.913-.003-21.306-.16-57.046-6.208-87.659-22.723zm317.67 157.791c-.023.28-.043.562-.043.848 0 .184-.007.368-.009.552-.005.083-.007.166-.013.249.003.008.006.016.008.025-.287 20.594-11.259 40.944-27.496 50.841-2.992 1.824-4.818 5.075-4.818 8.579 0 9.47-7.704 17.175-17.174 17.175h-76.667c-4.641 0-10.158-1.346-10.336-7.7.73-1.707 5.066-5.727 11.766-8.28.291-.11.576-.235.856-.372l10.981-5.397c4.274-2.101 6.487-6.914 5.298-11.526-1.487-5.764-6.552-7.41-9.272-8.295-6.188-2.012-10.581-4.195-10.751-14.015-.387-22.501 22.507-37.88 58.327-39.18 5.545-.202 9.877-4.86 9.676-10.406s-4.859-9.881-10.406-9.677c-22.253.808-41.294 6.457-55.064 16.336-14.887 10.68-22.922 26.048-22.625 43.273.196 11.395 4.113 18.816 8.88 23.702-3.394 1.87-6.685 4.161-9.498 6.814-8.518-.761-16.554-1.944-23.89-3.501l10.939-75.453c.796-5.491-3.01-10.589-8.502-11.385-5.484-.796-10.589 3.011-11.385 8.502l-14.013 96.657c-.229 1.575-.079 3.182.436 4.689l1.689 4.946h-21.65l-8.114-96.401c-.465-5.53-5.344-9.632-10.855-9.169-5.529.465-9.635 5.326-9.169 10.855l.001.018c-.005.129-.02.255-.02.385l-.179 94.312h-20.858l1.69-4.946c.514-1.508.663-3.116.435-4.692l-18.911-130.161c-.039-.27-.097-.533-.157-.795-.505-5.393-.767-11.107-.767-17.22 0-15.502 1.027-29.424 3.056-41.758 18.19 4.554 35.263 6.502 48.438 6.602.358.003.711.004 1.072.004 36.676-.001 87.641-14.114 120.228-41.405 13.544 8.827 26.769 19.147 39.278 30.8 42.383 39.485 69.05 87.339 69.594 124.889.005.227-.002.453-.006.681zm105.675-132.573c-.473 3.324-2.213 6.264-4.897 8.28-5.541 4.159-13.434 3.037-17.596-2.507-14.236-18.959-29.292-19.093-38.634-12.898-9.895 6.559-15.803 21.77-5.395 39.668 11.918 20.489 10.584 37.288 7.367 47.773-3.915 12.762-12.917 23.906-25.347 31.379-.95.571-1.914 1.107-2.883 1.626-1.452-8.206-3.757-16.613-6.878-25.129 1.506-1.201 2.994-2.588 4.525-4.217 12.28-13.068 7.589-28.309 1.49-38.794-7.978-13.717-10.643-28.282-7.706-42.119 2.75-12.951 10.187-24.008 20.941-31.137 18.823-12.48 49.581-11.932 72.622 18.76 2.014 2.683 2.864 5.992 2.391 9.315z"/><path d="m256.07 318.834c-3.329 0-6.029-2.699-6.029-6.029v-12.157c0-3.329 2.699-6.029 6.029-6.029 3.329 0 6.029 2.699 6.029 6.029v12.157c-.001 3.33-2.7 6.029-6.029 6.029z"/><path d="m314.229 340.685c-3.329 0-6.029-2.699-6.029-6.029v-12.157c0-3.329 2.699-6.029 6.029-6.029 3.329 0 6.028 2.699 6.028 6.029v12.157c0 3.33-2.699 6.029-6.028 6.029z"/><path d="m283.471 348.4c-3.329 0-6.029-2.699-6.029-6.029v-12.157c0-3.329 2.699-6.029 6.029-6.029 3.329 0 6.029 2.699 6.029 6.029v12.157c-.001 3.33-2.7 6.029-6.029 6.029z"/><path d="m100.02 154.098c0 7.372-5.977 13.349-13.35 13.349s-13.349-5.977-13.349-13.349c0-7.373 5.977-13.35 13.349-13.35 7.373 0 13.35 5.977 13.35 13.35z"/><path d="m235.435 154.098c0 7.372-5.977 13.349-13.35 13.349s-13.349-5.977-13.349-13.349c0-7.373 5.977-13.35 13.349-13.35 7.373 0 13.35 5.977 13.35 13.35z"/></g></g></svg>